<svg width="52" height="52" viewBox="0 0 52 52" fill="none" xmlns="http://www.w3.org/2000/svg">
<g filter="url(#filter0_d_25_2)">
<path d="M2.78817 3.74548C2.58893 3.00191 3.26934 2.32149 4.01291 2.52073L42.4927 12.8313C43.2362 13.0306 43.4853 13.9601 42.941 14.5044L14.7718 42.6735C14.2275 43.2178 13.298 42.9688 13.0988 42.2252L2.78817 3.74548Z" fill="#FFD600"/>
<path d="M13.417 44.8506C12.4861 43.9197 12.4861 42.4104 13.417 41.4795L41.7469 13.1495C42.6778 12.2186 44.1871 12.2186 45.118 13.1495C46.0489 14.0804 46.0489 15.5897 45.118 16.5206L16.7881 44.8506C15.8572 45.7815 14.3479 45.7815 13.417 44.8506Z" fill="#D79331"/>
<path d="M18.8208 28.5113C20.4101 30.1006 20.267 32.8206 18.501 34.5866C16.7351 36.3525 14.0151 36.4957 12.4257 34.9063C10.8364 33.317 10.9796 30.597 12.7455 28.831C14.5114 27.0651 17.2314 26.9219 18.8208 28.5113Z" fill="#D34435"/>
<path d="M14.6594 32.7548C15 33.0954 14.9693 33.6783 14.5909 34.0567C14.2125 34.4351 13.6297 34.4658 13.2891 34.1252C12.9485 33.7846 12.9792 33.2018 13.3576 32.8234C13.736 32.4449 14.3189 32.4143 14.6594 32.7548Z" fill="#DB695D"/>
<path d="M16.3496 28.5981C16.6901 28.9387 16.6594 29.5215 16.281 29.8999C15.9026 30.2783 15.3198 30.309 14.9792 29.9684C14.6386 29.6279 14.6693 29.045 15.0477 28.6666C15.4261 28.2882 16.009 28.2575 16.3496 28.5981Z" fill="#DB695D"/>
<path d="M17.391 33.4766C17.55 33.6355 17.5356 33.9075 17.3591 34.0841C17.1825 34.2607 16.9105 34.275 16.7515 34.1161C16.5926 33.9571 16.6069 33.6851 16.7835 33.5085C16.9601 33.3319 17.2321 33.3176 17.391 33.4766Z" fill="#DB695D"/>
<path d="M13.8555 29.941C14.0144 30.1 14.0001 30.372 13.8235 30.5486C13.6469 30.7252 13.3749 30.7395 13.216 30.5805C13.0571 30.4216 13.0714 30.1496 13.248 29.973C13.4246 29.7964 13.6966 29.7821 13.8555 29.941Z" fill="#DB695D"/>
<path d="M18.469 29.4386C18.628 29.5975 18.6137 29.8695 18.4371 30.0461C18.2605 30.2227 17.9885 30.237 17.8295 30.0781C17.6706 29.9191 17.6849 29.6471 17.8615 29.4705C18.0381 29.2939 18.3101 29.2796 18.469 29.4386Z" fill="#DB695D"/>
<path d="M17.7245 31.252C17.9515 31.4791 17.9311 31.8676 17.6788 32.1199C17.4265 32.3722 17.038 32.3926 16.8109 32.1656C16.5839 31.9385 16.6043 31.55 16.8566 31.2977C17.1089 31.0454 17.4974 31.025 17.7245 31.252Z" fill="#DB695D"/>
<path d="M14.9564 31.2246C15.1834 31.4517 15.1629 31.8402 14.9107 32.0925C14.6584 32.3448 14.2698 32.3652 14.0428 32.1382C13.8157 31.9111 13.8362 31.5226 14.0885 31.2703C14.3407 31.018 14.7293 30.9976 14.9564 31.2246Z" fill="#DB695D"/>
<path d="M26.3578 15.2188C27.9471 16.8081 27.804 19.5281 26.038 21.294C24.2721 23.06 21.5521 23.2031 19.9628 21.6138C18.3734 20.0244 18.5166 17.3045 20.2825 15.5385C22.0484 13.7726 24.7684 13.6294 26.3578 15.2188Z" fill="#D34435"/>
<path d="M22.6147 17.0674C22.1467 17.3158 21.6048 17.1569 21.4045 16.7125C21.2041 16.2681 21.4211 15.7065 21.8891 15.4581C22.3572 15.2097 22.899 15.3686 23.0993 15.813C23.2997 16.2574 23.0827 16.8191 22.6147 17.0674Z" fill="#DB695D"/>
<path d="M25.8574 19.6012C25.3894 19.8496 24.8475 19.6907 24.6472 19.2463C24.4468 18.8019 24.6638 18.2403 25.1318 17.9919C25.5999 17.7435 26.1417 17.9024 26.342 18.3468C26.5424 18.7912 26.3254 19.3528 25.8574 19.6012Z" fill="#DB695D"/>
<path d="M20.7739 19.5069C20.5555 19.6228 20.3027 19.5486 20.2092 19.3412C20.1157 19.1338 20.2169 18.8717 20.4354 18.7558C20.6538 18.6399 20.9066 18.7141 21.0001 18.9215C21.0936 19.1289 20.9924 19.3909 20.7739 19.5069Z" fill="#DB695D"/>
<path d="M25.6326 16.9284C25.4141 17.0443 25.1613 16.9702 25.0678 16.7628C24.9743 16.5554 25.0755 16.2933 25.294 16.1774C25.5124 16.0615 25.7652 16.1356 25.8587 16.343C25.9522 16.5504 25.851 16.8125 25.6326 16.9284Z" fill="#DB695D"/>
<path d="M24.1622 21.4316C23.9437 21.5475 23.6909 21.4733 23.5974 21.266C23.5039 21.0586 23.6051 20.7965 23.8236 20.6806C24.042 20.5647 24.2948 20.6388 24.3883 20.8462C24.4818 21.0536 24.3806 21.3157 24.1622 21.4316Z" fill="#DB695D"/>
<path d="M22.7505 20.3193C22.4385 20.4849 22.0773 20.379 21.9437 20.0827C21.8102 19.7864 21.9548 19.412 22.2668 19.2464C22.5788 19.0808 22.9401 19.1868 23.0736 19.4831C23.2072 19.7793 23.0625 20.1537 22.7505 20.3193Z" fill="#DB695D"/>
<path d="M23.8457 18.237C23.5337 18.4026 23.1725 18.2966 23.0389 18.0004C22.9054 17.7041 23.05 17.3297 23.362 17.1641C23.6741 16.9985 24.0353 17.1044 24.1688 17.4007C24.3024 17.697 24.1578 18.0714 23.8457 18.237Z" fill="#DB695D"/>
<path d="M14.7645 13.4921C16.3539 15.0815 16.2107 17.8014 14.4448 19.5674C12.6788 21.3333 9.95883 21.4765 8.36949 19.8871C6.78015 18.2978 6.9233 15.5778 8.68924 13.8119C10.4552 12.0459 13.1752 11.9028 14.7645 13.4921Z" fill="#D34435"/>
<path d="M11.868 18.0294C12.3745 17.9253 12.8267 18.2448 12.8779 18.7432C12.9292 19.2415 12.5601 19.7299 12.0536 19.8341C11.5471 19.9382 11.0949 19.6186 11.0436 19.1203C10.9924 18.622 11.3615 18.1336 11.868 18.0294Z" fill="#DB695D"/>
<path d="M9.63777 14.5566C10.1443 14.4525 10.5964 14.772 10.6477 15.2704C10.699 15.7687 10.3299 16.2571 9.82337 16.3613C9.31685 16.4654 8.86468 16.1458 8.81343 15.6475C8.76218 15.1492 9.13125 14.6608 9.63777 14.5566Z" fill="#DB695D"/>
<path d="M14.2998 16.178C14.5362 16.1294 14.7472 16.2786 14.7711 16.5111C14.7951 16.7437 14.6228 16.9716 14.3865 17.0202C14.1501 17.0688 13.9391 16.9197 13.9152 16.6871C13.8912 16.4546 14.0635 16.2266 14.2998 16.178Z" fill="#DB695D"/>
<path d="M9.04161 17.2591C9.27799 17.2105 9.489 17.3596 9.51292 17.5922C9.53683 17.8248 9.3646 18.0527 9.12823 18.1013C8.89185 18.1499 8.68084 18.0008 8.65692 17.7682C8.63301 17.5356 8.80524 17.3077 9.04161 17.2591Z" fill="#DB695D"/>
<path d="M11.7523 13.2619C11.9887 13.2133 12.1997 13.3624 12.2236 13.595C12.2475 13.8275 12.0753 14.0555 11.8389 14.1041C11.6025 14.1527 11.3915 14.0035 11.3676 13.771C11.3437 13.5384 11.5159 13.3105 11.7523 13.2619Z" fill="#DB695D"/>
<path d="M12.7203 14.7828C13.058 14.7134 13.3595 14.9264 13.3936 15.2587C13.4278 15.5909 13.1818 15.9165 12.8441 15.9859C12.5064 16.0553 12.205 15.8423 12.1708 15.5101C12.1366 15.1779 12.3827 14.8522 12.7203 14.7828Z" fill="#DB695D"/>
<path d="M10.8271 17.0149C11.1648 16.9454 11.4662 17.1585 11.5004 17.4907C11.5346 17.8229 11.2885 18.1485 10.9508 18.218C10.6132 18.2874 10.3117 18.0744 10.2776 17.7421C10.2434 17.4099 10.4894 17.0843 10.8271 17.0149Z" fill="#DB695D"/>
<path d="M32.532 10.1624L38.7254 11.8219C39.2775 13.3418 38.8668 15.2074 37.5399 16.5343C35.774 18.3003 33.054 18.4434 31.4646 16.8541C29.8753 15.2648 30.0184 12.5448 31.7844 10.7788C32.0184 10.5448 32.2693 10.3392 32.532 10.1624Z" fill="#D34435"/>
<path d="M36.0261 14.4192C36.6677 14.2873 37.2404 14.692 37.3053 15.3233C37.3703 15.9545 36.9028 16.5732 36.2612 16.7051C35.6196 16.837 35.0468 16.4322 34.9819 15.801C34.917 15.1697 35.3845 14.5511 36.0261 14.4192Z" fill="#DB695D"/>
<path d="M33.1016 10.9829C33.7431 10.851 34.3159 11.2558 34.3808 11.887C34.4457 12.5183 33.9782 13.1369 33.3366 13.2688C32.6951 13.4007 32.1223 12.9959 32.0574 12.3647C31.9925 11.7335 32.46 11.1148 33.1016 10.9829Z" fill="#DB695D"/>
<path d="M37.4804 13.052C37.8519 12.9756 38.1835 13.21 38.221 13.5754C38.2586 13.9409 37.988 14.299 37.6165 14.3754C37.2451 14.4518 36.9135 14.2174 36.8759 13.852C36.8383 13.4865 37.109 13.1284 37.4804 13.052Z" fill="#DB695D"/>
<path d="M32.2222 14.1331C32.5936 14.0567 32.9252 14.2911 32.9628 14.6565C33.0004 15.0219 32.7297 15.3801 32.3583 15.4565C31.9869 15.5328 31.6553 15.2985 31.6177 14.9331C31.5801 14.5676 31.8507 14.2094 32.2222 14.1331Z" fill="#DB695D"/>
<path d="M35.9009 11.6568C36.3737 11.5596 36.7957 11.8578 36.8435 12.323C36.8914 12.7881 36.5469 13.2439 36.0742 13.3411C35.6014 13.4383 35.1794 13.1401 35.1315 12.6749C35.0837 12.2098 35.4282 11.754 35.9009 11.6568Z" fill="#DB695D"/>
<path d="M34.3 13.2676C34.7728 13.1704 35.1948 13.4687 35.2426 13.9338C35.2905 14.3989 34.946 14.8547 34.4733 14.9519C34.0005 15.0491 33.5785 14.7509 33.5307 14.2858C33.4828 13.8206 33.8273 13.3648 34.3 13.2676Z" fill="#DB695D"/>
<path d="M6.50451 3.18834L13.9287 5.17764C13.9774 6.39934 13.4974 7.68819 12.508 8.67757C10.742 10.4435 8.02205 10.5867 6.43271 8.99732C4.92126 7.48588 4.97665 4.9519 6.50451 3.18834Z" fill="#D34435"/>
<path d="M8.69715 6.26254C8.05229 6.33152 7.52847 5.86767 7.52717 5.22651C7.52587 4.58534 8.04759 4.00965 8.69245 3.94067C9.33732 3.87169 9.86114 4.33553 9.86243 4.9767C9.86373 5.61786 9.34202 6.19355 8.69715 6.26254Z" fill="#DB695D"/>
<path d="M11.0168 9.24057C10.3719 9.30955 9.84809 8.84571 9.84679 8.20454C9.84549 7.56337 10.3672 6.98769 11.0121 6.9187C11.6569 6.84972 12.1808 7.31356 12.1821 7.95473C12.1833 8.5959 11.6616 9.17159 11.0168 9.24057Z" fill="#DB695D"/>
<path d="M6.563 6.74386C6.18966 6.7838 5.88639 6.51526 5.88564 6.14405C5.88489 5.77285 6.18693 5.43956 6.56028 5.39962C6.93362 5.35968 7.23688 5.62822 7.23764 5.99943C7.23839 6.37063 6.93634 6.70392 6.563 6.74386Z" fill="#DB695D"/>
<path d="M11.8481 6.1785C11.4747 6.21844 11.1715 5.94989 11.1707 5.57869C11.17 5.20749 11.472 4.8742 11.8453 4.83426C12.2187 4.79432 12.5219 5.06286 12.5227 5.43407C12.5235 5.80527 12.2214 6.13856 11.8481 6.1785Z" fill="#DB695D"/>
<path d="M7.76978 9.00696C7.29462 9.05779 6.90865 8.71601 6.90769 8.24357C6.90673 7.77113 7.29116 7.34694 7.76632 7.29611C8.24148 7.24528 8.62746 7.58706 8.62841 8.0595C8.62937 8.53194 8.24495 8.95613 7.76978 9.00696Z" fill="#DB695D"/>
<path d="M9.48774 7.89322C9.01258 7.94405 8.62661 7.60226 8.62565 7.12983C8.62469 6.65739 9.00911 6.2332 9.48428 6.18237C9.95944 6.13154 10.3454 6.47332 10.3464 6.94575C10.3473 7.41819 9.9629 7.84239 9.48774 7.89322Z" fill="#DB695D"/>
</g>
<defs>
<filter id="filter0_d_25_2" x="0.753052" y="0.485596" width="51.0632" height="51.0631" filterUnits="userSpaceOnUse" color-interpolation-filters="sRGB">
<feFlood flood-opacity="0" result="BackgroundImageFix"/>
<feColorMatrix in="SourceAlpha" type="matrix" values="0 0 0 0 0 0 0 0 0 0 0 0 0 0 0 0 0 0 127 0" result="hardAlpha"/>
<feOffset dx="2" dy="2"/>
<feGaussianBlur stdDeviation="2"/>
<feComposite in2="hardAlpha" operator="out"/>
<feColorMatrix type="matrix" values="0 0 0 0 0 0 0 0 0 0 0 0 0 0 0 0 0 0 0.25 0"/>
<feBlend mode="normal" in2="BackgroundImageFix" result="effect1_dropShadow_25_2"/>
<feBlend mode="normal" in="SourceGraphic" in2="effect1_dropShadow_25_2" result="shape"/>
</filter>
</defs>
</svg>
